REM MD5 d349dc7d617914a6e40bf6c72157a148
FILE "Noel 3 - Mission on the Line (Japan) (Disc 3) (Major Wave).bin" BINARY
  TRACK 01 MODE2/2352
    INDEX 01 00:00:00
  TRACK 02 AUDIO
    INDEX 00 57:05:43
    INDEX 01 57:07:43
  TRACK 03 AUDIO
    INDEX 00 61:13:38
    INDEX 01 61:15:38
REM LEADOUT 65:38:55
